<svg width="128" height="128" xmlns="http://www.w3.org/2000/svg">
 <g>
  <title>Layer 1</title>
  <path fill="none" stroke="#000" id="svg_1" d="m283,213c-3,0 -6.90778,0.49623 -11,1c-4.96252,0.61092 -10.22937,1.33199 -14,3c-3.29733,1.45863 -7.77614,4.46767 -11,10c-2.71133,4.65282 -4,12 -4,19c0,7 0.93068,15.34915 5,26c3.19223,8.35522 8.42453,17.41144 15,26c6.4621,8.44046 13.90143,15.16742 24,21c8.91547,5.14923 16.74966,8.0174 27,10c10.84439,2.0975 22.17697,2.28384 34,0c13.35458,-2.57971 23.68585,-6.81564 33,-13c7.68066,-5.09976 14.84323,-14.72903 18,-26c2.75043,-9.82013 4.73502,-21.15167 3,-31c-2.03079,-11.52718 -8.73907,-21.23888 -17,-30c-9.70193,-10.28943 -21.69925,-17.73222 -38,-24c-17.70963,-6.80949 -38.05283,-10.48866 -59,-9c-14.10657,1.00252 -28.13132,4.55327 -40,15c-10.09886,8.88893 -16.99594,23.86484 -18,35c-0.89806,9.95959 2.32274,22.41113 8,31c6.2872,9.51163 16.51663,16.90366 29,23c9.67792,4.72629 24.96899,8.19583 37,10c14.96542,2.2442 29.03522,2.99243 43,2c14.10657,-1.00253 25.47363,-3.9881 37,-10c11.56042,-6.02966 21.22385,-14.11404 26,-22c5.57953,-9.21243 7.55923,-20.0174 7,-29c-0.50098,-8.04668 -5.38113,-17.69052 -12,-23c-10.1705,-8.15849 -19.85159,-10.9951 -30,-12c-14.927,-1.47806 -26.56772,0.73991 -41,8c-13.6362,6.85962 -24.29245,16.10112 -33,30c-8.31003,13.26437 -13.64758,29.01614 -13,42c0.50061,10.03738 5.00638,20.99283 14,29c9.11682,8.11688 20.67691,13.38297 35,16c11.84549,2.16434 30.16251,2.08206 47,-1c16.22287,-2.96957 33.96249,-9.41101 48,-19c15.2258,-10.40073 23.36578,-22.45288 28,-36c4.31827,-12.6235 6.03491,-26.57315 2,-37c-3.40466,-8.7982 -13.42148,-20.10249 -26,-26c-10.59769,-4.96878 -24.26141,-8.4911 -36,-6c-9.63431,2.04454 -17.50293,8.33418 -20,16c-2.80466,8.61011 -1.98627,17.50664 3,26c5.06277,8.62372 14.80615,16.36606 24,21c10.78998,5.43842 24.9335,9.49454 38,11c12.95273,1.49237 25.31586,2.29376 36,-1c9.41177,-2.90149 15.23404,-8.49414 18,-17c1.88107,-5.78461 2.85245,-15.62393 -1,-24c-4.17856,-9.08513 -14.10818,-17.65353 -26,-23c-13.27982,-5.97049 -28.18079,-7.24255 -42,-5c-12.48578,2.02617 -23.95523,11.4079 -28,19c-4.01733,7.54062 -5.9426,17.15543 -4,26c2.03516,9.26596 9.31934,18.90024 17,24c11.177,7.42123 22.86078,10.87259 39,13c12.92657,1.70392 29.10385,2.07672 45,0c15.16815,-1.98163 27.79285,-6.91254 35,-13c9.19922,-7.77008 12.05524,-17.95029 12,-28c-0.04974,-9.05525 -5.1145,-18.86574 -11,-24c-7.10913,-6.20166 -20,-9 -30,-9c-12,0 -25.6203,3.25165 -33,10c-9.92834,9.07898 -14,19.94461 -14,29c0,9.05539 6.17432,20.07486 15,26c9.2825,6.23181 23.94302,10.52579 40,12c16.95807,1.55695 34.20398,2.30042 51,-1c18.33099,-3.60205 29.51373,-8.13419 41,-19c8.28284,-7.83545 11.49457,-17.97098 11,-31c-0.4989,-13.14348 -6.8714,-28.05244 -20,-41c-11.12177,-10.9684 -27.3526,-21.10316 -47,-26c-21.54456,-5.36966 -39.27499,-5.71815 -57,-2c-16.40598,3.44147 -32.24005,12.74022 -42,22c-6.15567,5.84019 -12.99594,14.86484 -14,26c-0.71844,7.96768 1.99313,18.88272 10,27c8.99316,9.11719 20.52795,14.45343 37,19c21.55466,5.94946 43,6 66,6c20,0 46.461,-3.39087 63,-9c20.76978,-7.04398 33.52747,-14.67673 42,-26c7.50665,-10.03246 10.06775,-24.24075 8,-33c-2.56873,-10.88126 -15.52368,-21.78468 -25,-27c-17.2569,-9.49736 -37.94513,-13.61748 -57,-15c-24.95441,-1.81056 -44.44238,0.4808 -64,7c-19.55762,6.5192 -33.59491,14.67398 -40,24c-5.57581,8.11853 -8.06573,18.72536 -4,27c3.44424,7.00978 14.72388,13.95091 27,17c11.80679,2.93253 31.05817,3.69061 47,2c20.11096,-2.13275 37.54718,-6.55692 55,-14c19.74988,-8.42271 32.40839,-17.63808 43,-30c7.03772,-8.21402 10.3053,-19.68184 6,-30c-4.70044,-11.26524 -18.55756,-20.01714 -36,-27c-23.48608,-9.40234 -48.94238,-12.99927 -75,-14c-21.98376,-0.84428 -48.47214,1.60655 -68,9c-13.39023,5.06969 -24.62,10.94736 -30,21c-4.47644,8.3643 -4.08746,16.79286 2,24c7.77008,9.19923 17.64969,14.11812 32,18c15.71402,4.25078 35.97235,6.06238 54,6c16.03113,-0.05547 33.32733,-2.92917 48,-8c14.39606,-4.97523 22.98022,-11.46529 27,-20c4.0423,-8.58252 3.61169,-19.33002 -2,-29c-7.23889,-12.47391 -15.3067,-20.83583 -26,-29c-13.22852,-10.0998 -25.62451,-14.53104 -39,-17c-14.78357,-2.72887 -28.38211,-4.10441 -45,0c-13.52206,3.33978 -28.00452,11.905 -39,23c-10.00452,10.09505 -16.91205,22.65947 -21,35c-3.88962,11.74184 -5.10596,22.1929 -3,31c1.98703,8.30974 8.88855,15.19409 14,18c7.84061,4.30406 18.04776,5.87294 26,5c9.16449,-1.00601 22.27087,-5.49146 32,-11c11.34601,-6.42401 21.6134,-13.9912 28,-26c5.49597,-10.33414 6.55298,-18.0153 6,-28c-0.50079,-9.04153 -5.54114,-17.82292 -14,-22c-7.66083,-3.78302 -23.02142,-5.7742 -37,-5c-18.08307,1.00153 -28.8208,2.83537 -55,14c-19.74988,8.42271 -32.83429,18.15166 -42,28c-7.76782,8.34633 -12.49902,17.95332 -13,26c-0.3107,4.99034 1.57111,9.67947 6,12c5.60217,2.93527 14.04379,2.88684 23,2c15.22263,-1.50734 32.31668,-6.87079 52,-13c16.31531,-5.08044 33.33051,-12.33238 50,-21c14.30615,-7.43874 24.72382,-15.3443 31,-23c2.28589,-2.78833 2.33112,-8.62021 -1,-10c-4.71088,-1.95131 -14.15387,-1.93129 -29,1c-19.27478,3.80571 -36.23334,9.26599 -53,15c-23.36935,7.99205 -37.7579,14.65454 -51,23c-9.64597,6.0791 -15.98691,13.75711 -17,20c-0.8009,4.93544 1.86194,8.47545 8,10c5.90338,1.46626 18.03381,1.19321 30,-1c15.04642,-2.75777 32.20505,-7.38567 51,-14c18.21799,-6.4113 32.79623,-12.79221 50,-25c11.59094,-8.22495 20.6601,-16.17702 24,-25c2.15344,-5.68881 0.49683,-12.78125 -7,-17c-6.63702,-3.73492 -20.04901,-5.25154 -36,-4c-19.17645,1.50461 -41.2276,7.29466 -67,16c-19.18365,6.4798 -40.41913,15.28024 -58,26c-15.39215,9.38521 -24.24768,17.28323 -29,27c-2.77872,5.68144 -2.83875,12.79626 1,16c5.15024,4.29826 15.00699,5.39211 26,5c14.02676,-0.50032 26.1391,-3.54927 43,-9c17.15369,-5.54538 37.27759,-14.5985 49,-23c13.33096,-9.55435 24.11932,-20.06519 29,-34c3.69577,-10.55183 3.46838,-19.92209 -2,-27c-6.49908,-8.412 -17.80643,-12.11783 -32,-14c-18.86118,-2.50113 -40.22446,-2.44115 -64,2c-24.31802,4.54248 -47.79202,12.53189 -71,26c-18.71088,10.85834 -28.0705,19.01154 -33,32c-3.61859,9.53445 0.00809,19.99077 8,27c10.84283,9.50961 22.7673,13.16556 40,16c20.81534,3.42372 43.06186,3.99141 67,2c24.10352,-2.00517 47.2276,-6.29466 73,-15c19.18365,-6.4798 37.66125,-17.31293 46,-26c9.84222,-10.25334 14.5976,-21.96791 14,-32c-0.54822,-9.20323 -8.40503,-19.12699 -19,-24c-14.36484,-6.6069 -30.98438,-8.49989 -55,-9c-18.99588,-0.39558 -42.25513,3.13261 -64,10c-25.33713,8.00189 -42.08508,15.59421 -58,29c-8.65298,7.28876 -19.25931,20.464 -23,31c-3.08466,8.6882 -2.89374,19.59286 2,26c4.29208,5.61943 13.88086,10.64304 23,12c12.89639,1.91904 25.09695,1.66321 41,-1c19.14981,-3.20692 37.5061,-10.07973 49,-17c14.73932,-8.87427 24.01041,-16.95409 29,-29c3.52817,-8.51775 3.74832,-19.787 -1,-28c-6.02704,-10.42473 -17.53802,-17.55749 -32,-21c-15.68622,-3.73392 -37.11597,-4.9823 -54,-3c-21.43976,2.51717 -43.44766,12.35907 -58,23c-15.50616,11.33838 -28.30579,23.83871 -35,40c-6.31137,15.23701 -5.0144,29.59354 0,37c6.75085,9.97125 15.67334,16.03175 30,20c14.742,4.0833 28.10669,4.84462 44,3c17.34781,-2.01343 33.64398,-7.75958 48,-16c13.71289,-7.87126 26.19489,-20.26219 32,-31c5.1221,-9.4744 7.48038,-25.43469 4,-38c-3.5813,-12.9296 -13.51126,-22.99913 -25,-28c-11.59799,-5.04842 -31.13486,-8.1993 -49,-6c-20.46106,2.51888 -40.37894,11.28319 -56,20c-21.5675,12.03505 -34.63864,23.42436 -49,40c-8.3858,9.67876 -14.49937,21.9626 -15,32c-0.39851,7.99007 4.0769,16.64969 12,20c10.29755,4.35435 25.08603,4.657 41,3c19.31207,-2.01082 39.39771,-7.95328 59,-16c19.44888,-7.98376 37.61795,-17.22989 52,-32c11.44202,-11.75075 16.73624,-23.87137 19,-39c1.48724,-9.93922 -2.0997,-20.8856 -9,-27c-8.09564,-7.17361 -20.98938,-9.79918 -38,-9c-13.13846,0.61726 -36.34976,7.17574 -56,16c-18.35849,8.24417 -40.29559,21.63387 -54,33c-16.36438,13.57228 -26.66824,24.23148 -32,38c-2.9778,7.68977 -3.20166,17.89088 3,25c5.13425,5.88553 13.97504,8.49973 29,9c17.99002,0.599 36.0535,-1.80101 55,-7c21.06177,-5.77943 40.09409,-12.81453 56,-21c17.10349,-8.80176 29.09216,-17.08356 39,-30c7.93561,-10.34534 11.50842,-22.31972 9,-32c-2.58258,-9.96646 -13.57965,-17.27248 -27,-21c-16.633,-4.61985 -38.04694,-5.36959 -58,-4c-29.20584,2.00471 -60.25333,10.21608 -83,18c-21.26176,7.27579 -46.07271,18.58324 -61,31c-11.95963,9.94823 -19.64618,20.78725 -20,30c-0.27136,7.06586 6.76398,12.72672 15,15c10.77733,2.97473 26.10118,4.24438 46,2c17.1539,-1.93478 33.41876,-5.79935 55,-14c18.41315,-6.99683 31.95465,-14.95464 43,-26c11.04535,-11.04536 15.49902,-22.95332 16,-31c0.4971,-7.98454 -4.45126,-15.58723 -14,-18c-12.64111,-3.19414 -28.37137,-2.54228 -48,3c-19.48657,5.50217 -35.54233,14.15816 -53,26c-20.68933,14.03394 -32.51062,24.96681 -41,39c-7.41101,12.2506 -10.47395,26.39214 -8,34c4.20618,12.93477 14.19572,17.19972 28,21c18.41972,5.07089 35.11664,4.09589 59,1c17.11945,-2.21912 40.39169,-7.95207 63,-17c22.43607,-8.979 44.89087,-22.10159 57,-35c14.11026,-15.02998 19.98047,-25.58052 22,-40c1.24832,-8.91301 -2.82489,-19.33452 -15,-24c-11.36002,-4.35315 -31.20801,-4.20631 -52,0c-19.25677,3.89574 -43.42459,11.96384 -64,21c-26.6153,11.68871 -46.66068,25.15164 -61,37c-14.72778,12.16933 -25.72269,24.22272 -30,36c-3.48128,9.58545 -0.90321,20.10744 5,24c8.99152,5.92896 25.01317,6.60696 39,6c23.06509,-1.00095 41.13553,-4.5235 63,-11c25.16788,-7.45502 46.21219,-16.63275 62,-26c16.22675,-9.62769 30.55521,-20.59444 37,-30c3.29593,-4.81009 2.28903,-11.7334 -2,-13c-8.6846,-2.56468 -22.22903,-1.82458 -38,3c-22.38538,6.84802 -36.65475,12.7244 -59,25c-16.53687,9.08472 -35.12616,22.97083 -46,36c-10.1311,12.13922 -13.00673,23.25577 -11,31c2.58258,9.96646 12.66745,16.90952 28,22c14.7334,4.89154 33.00531,5.42459 50,5c20.01874,-0.50015 39.47061,-3.73911 57,-11c16.52686,-6.84564 27.62,-14.94736 33,-25c4.47644,-8.36429 4.91934,-19.29468 -1,-26c-7.15848,-8.10901 -21.87985,-12.89774 -41,-15c-15.93518,-1.75208 -37.26486,-2.30222 -60,3c-17.25696,4.02461 -37.95984,12.56573 -52,23c-11.93185,8.86743 -18.95546,17.36569 -21,27c-2.07591,9.78217 1.16962,19.80759 8,26c9.04333,8.19867 21.91064,11.6409 34,13c16.92279,1.9025 38.13449,0.68173 55,-3c23.22284,-5.06952 40.65726,-10.50119 58,-19c15.7081,-7.69775 29.34479,-18.05887 36,-29c5.11832,-8.41446 6.3252,-17.76407 3,-22c-5.31171,-6.76653 -17.97736,-7.56609 -33,-7c-14.13211,0.53253 -35.26471,7.33661 -51,14c-19.3595,8.19815 -36.69098,18.19296 -52,32c-11.55209,10.4187 -19.47552,21.59311 -21,30c-1.78424,9.83954 2.48914,17.84799 12,23c6.69641,3.62744 20.98029,5.49982 40,6c18.99344,0.49948 37.13055,-2.45673 59,-8c25.16568,-6.37875 43.7384,-11.25275 62,-20c15.77637,-7.55685 27.50092,-14.58798 34,-23c4.10129,-5.30844 3.37924,-9.74277 0,-11c-7.55624,-2.81128 -22.09457,-0.38376 -35,3c-17.14066,4.49423 -35.5047,10.00525 -52,19c-16.56525,9.03287 -31.0014,20.08246 -41,32c-7.84558,9.35132 -13.21808,18.02692 -12,27c0.7244,5.33621 7.88086,10.64304 17,12c12.89639,1.91904 26.13684,2.07486 46,-1c19.18796,-2.97034 39.17746,-9.58365 56,-17c17.19177,-7.5791 34.26859,-16.75922 45,-29c8.04688,-9.17868 14.47498,-19.79269 14,-29c-0.48877,-9.47424 -11.79346,-16.80316 -22,-19c-14.79395,-3.18423 -36.36935,-3.86188 -56,1c-20.56818,5.09409 -38.71722,13.93488 -54,25c-12.65237,9.16064 -23.39182,20.46826 -27,32c-3.33862,10.67023 -2.80942,20.77979 3,26c8.04562,7.22964 21.98776,10.17438 35,11c19.9848,1.26804 40.00967,-0.95676 58,-5c22.01196,-4.94711 43.60425,-10.76514 65,-22c15.48749,-8.13245 31.09247,-18.99902 42,-32c7.84558,-9.35132 13.58112,-22.0943 12,-30c-1.58112,-7.9057 -10.76184,-13.49161 -25,-15c-11.93323,-1.26422 -29.51038,0.51212 -46,7c-16.64642,6.54959 -32.99539,15.85199 -47,29c-10.83813,10.1752 -18.96326,21.42401 -21,32c-1.32376,6.87369 2.52945,15.67239 8,19c8.41446,5.11832 20.9646,5.91193 35,6c17.02905,0.10687 36.1709,-4.39066 55,-10c18.1839,-5.41714 34.41913,-12.28024 52,-23c12.31372,-7.50815 23.29956,-17.73474 28,-29c4.3053,-10.31818 2.29901,-20.55576 -7,-27c-9.93134,-6.88245 -23.92126,-8.99863 -43,-10c-23.96698,-1.25793 -40.41736,0.24036 -65,7c-17.38257,4.77979 -37.86078,13.8689 -50,24c-9.77188,8.1554 -16.12717,18.01694 -15,26c1.06476,7.54099 7.81961,12.53403 16,15c12.7739,3.85068 25.02744,3.93634 41,3c17.08789,-1.00171 36.15283,-6.5596 54,-13c18.16656,-6.55566 34.23425,-15.6875 49,-27c10.16577,-7.7883 19.44202,-18.19083 22,-30c2.54041,-11.72803 -0.81995,-21.0161 -7,-27c-7.77087,-7.52422 -23.91211,-10.99828 -41,-12c-17.96918,-1.05338 -36.37415,1.97658 -54,9c-15.37714,6.12735 -28.99283,14.00638 -37,23c-8.11688,9.11682 -11.638,22.02264 -11,31c0.50125,7.05328 5.30164,14.35831 16,19c6.67859,2.89764 20,4 35,4c16,0 33.30078,-2.02197 51,-8c20.40802,-6.89294 36.77148,-13.90021 50,-24c10.6933,-8.16418 21.34973,-18.35907 27,-32c3.99536,-9.64558 4.62561,-19.81642 0,-27c-5.35944,-8.32324 -16.8551,-12.71713 -30,-15c-16.86481,-2.92889 -36.04822,-4.42195 -57,-3c-22.15265,1.50345 -44.24658,7.27029 -60,13c-12.21701,4.44348 -20.41885,10.25658 -22,15c-1.58115,4.74342 2.80963,8.56731 11,11c8.83795,2.62503 21,4 39,4c14,0 31.15448,-2.39246 48,-7c16.16913,-4.42255 30.42523,-10.34242 40,-17c10.51434,-7.31087 16.82037,-15.76695 19,-25c1.62457,-6.88191 -2.11401,-15.22385 -10,-20c-9.2124,-5.57954 -21.91693,-6.99847 -40,-8c-19.96942,-1.106 -42.44531,0.07477 -68,7c-17.40015,4.71538 -38.74036,14.94109 -52,25c-9.59348,7.27773 -18.48392,17.67035 -20,28c-1.16171,7.91521 2.31934,14.90024 10,20c7.45132,4.94751 19,7 35,8c16,1 30.21411,0.08197 48,-4c17.271,-3.96382 32.396,-11.26595 44,-18c12.47394,-7.23889 21.92419,-17.17456 25,-27c3.00238,-9.59091 -0.75665,-21.08217 -7,-27c-9.46295,-8.96956 -20.90045,-11.9978 -36,-13c-17.96051,-1.19209 -40.17175,0.257 -59,5c-17.18323,4.3286 -37.38086,12.36755 -51,21c-10.30994,6.53493 -18.83179,15.52216 -22,22c-2.77872,5.68144 -1.38519,12.59789 3,15c7.49341,4.10472 19.02768,4.77979 30,4c14.10657,-1.00252 28,-6 44,-11c16,-5 31.38098,-11.41165 44,-20c12.40051,-8.43962 22.05109,-17.10857 26,-29c2.22852,-6.71072 2.36481,-16.23538 -5,-23c-6.94794,-6.38173 -18.8139,-9.49487 -37,-11c-18.93524,-1.56712 -41.10349,-1.26465 -61,1c-28.26047,3.21664 -52.25195,9.16843 -70,15c-21.34927,7.01486 -33.74823,13.13182 -42,21c-6.67245,6.36227 -7.95969,12.64734 -5,16c4.77234,5.40601 14.96597,5.49948 26,6c15.98355,0.72504 31.22021,0.21423 51,-4c18.27145,-3.89287 30.57153,-7.74742 47,-16c10.42099,-5.23482 22.84076,-14.11073 26,-23c2.69989,-7.59676 1.74713,-14.83705 -6,-21c-7.38284,-5.87314 -21.99124,-9.13112 -36,-10c-18.98981,-1.17784 -40.1864,-0.00601 -59,4c-26.33542,5.60764 -47.31317,13.33415 -67,23c-15.25992,7.49231 -28.97507,17.21989 -36,27c-4.70343,6.54811 -5.37512,15.62971 -3,19c4.15393,5.89447 13.9903,6.12439 26,7c15.98877,1.16573 30.1507,-0.27696 51,-5c19.16138,-4.34068 34.46631,-9.02391 52,-18c12.36618,-6.33067 22.54495,-13.83475 29,-24c4.08255,-6.42906 3.93121,-13.9104 0,-17c-5.98782,-4.70593 -20.04956,-5.13393 -33,-4c-17.19687,1.50574 -37,7 -61,15c-21,7 -38.52206,12.91585 -56,22c-15.52155,8.06731 -27.97507,17.21989 -35,27c-4.70343,6.54811 -6.55789,14.07805 -2,19c3.96185,4.27831 13.90048,6.9978 29,8c13.96927,0.92719 32.10968,-1.43776 54,-6c17.09689,-3.56322 37.49554,-8.75024 59,-18c14.37875,-6.18477 28.94476,-15.13019 39,-27c5.56033,-6.56375 10.37842,-19.19376 9,-24c-2.60077,-9.06841 -13.76999,-13.91502 -24,-16c-17.74594,-3.61682 -34.20352,-3.18405 -55,1c-23.3028,4.68829 -40.6666,11.77486 -58,22c-16.72348,9.86536 -30.14395,20.75238 -37,35c-4.52707,9.40775 -6.80499,19.90485 -2,30c3.96231,8.32468 16.85535,15.46347 29,19c15.83472,4.61108 35,7 56,7c23,0 50.22345,-2.92238 72,-8c21.26978,-4.95947 40.00452,-11.27547 53,-20c8.82568,-5.92514 16.86169,-14.17841 15,-21c-1.68585,-6.17722 -10.92047,-8.61229 -24,-10c-16.93433,-1.79671 -40.15323,-0.80699 -58,3c-23.2467,4.95888 -45.48441,11.74522 -65,20c-18.53473,7.83987 -31.33398,15.58038 -41,26c-8.30167,8.94888 -11.8175,17.89883 -8,25c4.36548,8.12051 15.88788,10.67892 26,12c15.89615,2.07672 35.12488,0.70541 54,-3c17.13715,-3.36423 36.23233,-8.44202 56,-17c15.19049,-6.57639 26.84949,-14.25668 32,-21c4.89374,-6.40714 5.23004,-13.33414 1,-16c-8.62762,-5.4373 -22.06992,-4.34631 -35,-3c-19.31207,2.01082 -37.19275,9.53894 -52,16c-19.26926,8.40805 -31.46198,16.46323 -42,26c-10.48572,9.48944 -15.49875,16.94672 -16,24c-0.42532,5.98489 3.8046,10.72833 10,12c11.79568,2.42114 26.07593,2.80893 41,1c17.13724,-2.07718 37.94803,-8.14932 55,-14c11.96445,-4.1051 28.27673,-11.58301 39,-19c8.22437,-5.68857 13.14804,-10.22836 12,-13c-0.5412,-1.30656 -6.0578,-2.0184 -15,-1c-13.25598,1.5097 -24.17426,7.58151 -39,14c-15.19049,6.57639 -28.2381,15.71661 -39,25c-11.25668,9.71017 -18.38351,17.37411 -21,25c-2.29483,6.68832 0.31021,12.06296 6,15c6.46909,3.33932 17.00763,3.42776 29,3c14.02676,-0.50031 31.30756,-3.92578 47,-9c15.37186,-4.97055 27.84671,-10.85648 39,-20c7.6557,-6.27618 13.15814,-13.72162 13,-21c-0.13739,-6.32306 -6.97845,-10.19058 -15,-11c-12.97253,-1.30899 -23.05267,-0.25229 -38,3c-17.06497,3.71304 -34.28339,9.38504 -50,17c-15.29883,7.41254 -25.099,11.64642 -29,20c-2.57376,5.51141 0.70847,10.67261 7,13c7.73401,2.86099 21.96881,4.49957 34,5c17.98444,0.74805 33.98773,-1.07504 46,-3c12.98724,-2.08121 25,-6 32,-9l3,-2l2,-3"/>
  <path fill="none" stroke="#000" id="svg_5" d="m15.92308,17.26924c2.30769,-0.38461 6.23382,-0.73877 10.38461,0.38461c4.34547,1.17608 9.64841,3.78905 15,6.92308c5.80572,3.39998 11.0564,6.98377 15,10.76923c3.34119,3.20721 5.56752,5.99734 6.15385,9.23077c0.34312,1.89222 -0.9635,4.24965 -3.07692,5c-2.5629,0.90993 -7.07831,0.84964 -11.15385,-0.76923c-6.07662,-2.41374 -10.55508,-5.94186 -15.38461,-10c-4.79349,-4.02785 -8.45178,-7.48018 -11.15384,-12.69231c-1.34813,-2.60047 -1.38017,-5.92462 0,-7.69231c1.33896,-1.71491 4.54445,-3.45864 7.69231,-3.84615c3.81734,-0.46994 8.99008,-0.02254 13.84615,1.92308c5.58833,2.23901 10.64161,5.06614 15,8.84615c2.87639,2.49468 4.66203,5.804 4.23077,8.46154c-0.38965,2.40111 -2.98377,4.85631 -7.69231,6.53846c-3.78143,1.35094 -10.00846,2.63025 -16.15385,2.30769c-7.33796,-0.38515 -12.01529,-1.69703 -18.84615,-4.61539c-5.85459,-2.50127 -10.399,-5.03172 -13.07692,-8.46154c-1.38017,-1.76769 -1.9866,-4.86277 -0.76923,-6.53846c1.76558,-2.4303 5.33263,-3.84459 9.61538,-4.23077c4.9798,-0.44903 10.08354,0.53229 16.92308,3.07692c6.62726,2.46565 12.85688,5.56778 18.07692,10c4.77274,4.05242 7.49059,7.92042 8.07692,11.15384c0.61763,3.40599 -0.53272,6.37352 -2.69231,8.46154c-3.15267,3.04819 -8.36994,5.18908 -13.84615,5.76923c-4.97218,0.52675 -11.21952,0.29005 -16.92307,-1.15384c-5.07135,-1.28384 -9.65626,-2.88413 -11.92308,-5c-2.02751,-1.89249 -2.49231,-4.40222 -1.53846,-6.53846c1.00408,-2.24876 4.50744,-4.30045 8.46154,-5c6.44961,-1.14106 10.37121,-0.33691 15.76923,1.15385c5.75539,1.58945 11.53744,3.66083 15.76923,6.92307c3.87707,2.98879 5.57644,6.51797 5.76923,9.23077c0.19086,2.68553 -1.66061,5.39946 -5,7.30769c-4.34122,2.4807 -9.21156,3.23811 -15,3.84615c-4.98733,0.5239 -11.55692,0.49628 -16.53846,-0.38461c-3.8624,-0.68299 -7.44285,-0.94292 -8.84615,-2.69231c-0.76105,-0.94874 -0.67246,-2.95807 0.76923,-4.23077c2.32465,-2.05216 4.96235,-3.29778 8.84615,-3.84615c4.58589,-0.64751 9.33711,-0.8009 14.61538,0.76923c5.13471,1.52742 9.41049,2.7966 12.69231,6.15385c1.93875,1.98331 2.82102,5.06978 2.30769,6.92307c-0.59864,2.1613 -3.01585,4.38525 -5.76923,5.38461c-3.77456,1.37002 -8.06492,2.11522 -12.69231,2.30769c-4.61139,0.19181 -9.29835,-1.0027 -11.15384,-1.92307c-2.00909,-0.99656 -2.52589,-2.71313 -2.30769,-3.84615c0.39168,-2.03385 2.11822,-3.73421 4.23077,-5c2.51263,-1.50552 5.36074,-2.28645 8.46154,-2.30769c3.48276,-0.02386 5.68707,1.22256 7.30769,3.07692c1.47581,1.68866 2.71962,4.62011 2.30769,6.92308c-0.54599,3.05242 -3.33489,4.89287 -7.30769,6.53846c-3.37103,1.39633 -8.45046,1.73062 -13.46154,1.92307c-3.84332,0.1476 -8.17923,-0.43808 -11.15384,-1.53846c-3.22642,-1.19353 -5.29561,-2.54342 -6.15385,-4.61538c-0.60687,-1.4651 -0.70248,-4.34268 0.38462,-6.92308c1.20389,-2.85763 3.90365,-5.77133 7.69231,-6.92307c4.43116,-1.34706 10.10575,-0.98726 16.15384,0.38461c5.93065,1.34523 10.40527,3.74782 14.61538,7.69231c2.58769,2.42442 4.22846,5.32134 4.61539,8.84615c0.37771,3.44087 -0.85727,7.16968 -3.46154,10c-3.13595,3.40815 -7.55279,5.94724 -12.6923,6.92307c-4.92675,0.93544 -10.04949,0.61938 -14.23077,-0.38461c-3.90452,-0.93754 -7.05159,-2.21922 -8.07692,-3.84615c-1.04564,-1.65916 -0.77785,-4.01707 0.38461,-6.15385c1.17691,-2.16332 4.09064,-4.41553 7.69231,-5c3.41684,-0.55447 7.81378,-0.4976 11.92307,0.76923c3.61991,1.11596 7.06567,3.70988 10,6.92307c2.02567,2.21818 3.26886,5.36666 3.46154,8.46154c0.16729,2.6871 -0.64515,5.13115 -3.07692,7.30769c-1.83506,1.64246 -5,2.30769 -8.46154,2.30769c-3.07692,0 -6.45404,-0.69231 -9.61539,-3.07692c-1.73698,-1.3102 -3.07692,-3.84615 -3.07692,-6.15385c0,-2.69231 0.45841,-5.25172 2.69231,-7.69231c2.39418,-2.6157 5.32754,-3.84427 9.23077,-4.23077c4.59292,-0.45479 8.59339,0.45638 13.46154,2.69231c5.16049,2.37019 8.91805,4.98758 11.53846,8.46154c2.38461,3.16135 2.54994,6.32159 1.53846,8.84615c-1.23052,3.07125 -4.49901,4.56169 -8.46154,5.76923c-5.26769,1.60528 -10.78682,1.94104 -15.38461,1.53846c-6.61419,-0.57913 -11.67338,-2.36255 -15.76923,-4.23077c-3.60278,-1.64331 -6.93577,-4.38583 -7.69231,-6.15385c-0.92037,-2.15089 -1.0377,-4.94971 0.38462,-6.92307c2.24889,-3.12016 5.71724,-4.22921 10,-4.61539c4.21367,-0.37995 9.68637,0.61248 15.76923,3.46154c4.67298,2.18871 9.35868,5.35464 12.69231,10c2.30872,3.21718 3.07692,6.15384 3.07692,9.61538c0,2.69231 -0.68538,5.97654 -3.46154,7.69231c-2.06923,1.27885 -6.16564,2.20859 -9.61538,1.92308c-4.66311,-0.38593 -8.73973,-1.4736 -12.6923,-4.23077c-3.35328,-2.33912 -5.21851,-4.90312 -6.15385,-7.30769c-1.01508,-2.60957 -1.84487,-5.47482 -1.15384,-8.07693c0.79589,-2.99699 2.88211,-5.67027 6.15384,-7.69231c3.65791,-2.26071 7.67949,-2.83215 12.6923,-2.69231c5.81802,0.16231 11.53846,1.92308 17.30769,4.23077c5.76923,2.30769 10.94527,5.17664 14.61539,8.46154c3.24236,2.90205 4.42242,4.97614 4.61538,7.30769c0.15862,1.91652 -1.37846,4.1691 -3.46154,5c-3.29362,1.31377 -7.34719,1.09947 -11.92307,0.38461c-5.06991,-0.79204 -10.04827,-2.99052 -14.23077,-5.38461c-3.89273,-2.22823 -7.33951,-5.1559 -8.46154,-7.69231c-1.28309,-2.9005 -1.28309,-5.94566 0,-8.84615c1.12203,-2.53641 3.92377,-5.22897 7.30769,-6.53846c4.01033,-1.5519 8.90126,-1.08728 14.23077,0c5.85033,1.19353 11.48217,3.29705 16.92308,6.92307c4.54881,3.03149 8.16117,6.70145 9.61538,10.38461c1.16474,2.95001 0.75204,5.65987 -0.76923,7.30769c-2.2443,2.43102 -5.75614,2.88441 -9.99999,3.07692c-4.99487,0.22657 -11.20542,-1.01513 -16.53846,-3.07692c-4.66361,-1.80299 -9.09039,-4.28552 -12.30769,-6.92307c-2.52386,-2.06907 -3.54092,-5.04713 -3.07692,-7.30769c0.58895,-2.86932 2.92681,-5.21506 6.15385,-7.30769c3.32243,-2.1545 7.22207,-4.03564 13.07692,-4.61538c5.74115,-0.56848 10.8834,0.41676 17.30769,2.69231c4.71307,1.66942 9.42343,4.0723 11.92308,7.30769c1.57742,2.0417 2.01219,5.54435 1.15384,7.30769c-1.55199,3.1883 -4.93935,4.4076 -8.07692,5.38461c-4.5423,1.41444 -8.48586,1.64653 -13.46153,1.15385c-3.90324,-0.3865 -7.47548,-1.70757 -10,-3.84615c-2.07514,-1.7579 -3.43434,-4.19909 -3.46154,-6.53846c-0.03162,-2.71946 1.20264,-5.62199 3.46154,-8.46154c2.03173,-2.55399 5.1513,-5.17864 9.23077,-6.53846c4.07946,-1.35982 9.65623,-1.76646 14.23077,-1.15385c4.34649,0.58208 9.54301,2.50145 13.46154,5c2.9899,1.90643 5.21035,4.94025 5.76923,7.30769c0.62484,2.64689 1.17804,5.70159 -0.38461,8.46154c-1.60796,2.83996 -4.87321,4.80151 -8.84615,5.38461c-4.18592,0.61436 -8.64716,0.19216 -14.23077,-1.92308c-3.217,-1.2187 -7.52863,-3.22821 -10.38461,-6.15384c-2.09837,-2.14954 -2.88413,-4.59489 -3.07693,-7.30769c-0.19086,-2.68553 0.95282,-5.56819 3.07693,-7.69231c2.12411,-2.12411 5.32753,-3.84427 9.23077,-4.23077c4.59293,-0.45479 8.93665,0.14214 12.30769,1.53846c3.9728,1.64558 7.58035,4.42591 8.84615,6.53846c1.50552,2.51263 2.15713,5.44745 1.53847,8.46153c-0.58895,2.86933 -2.59301,5.12584 -5,6.92308c-2.22234,1.65937 -6.13589,3.26886 -9.23077,3.46154c-3.45485,0.2151 -6.03601,0.10369 -8.46154,-1.53847c-2.25204,-1.5247 -3.24953,-3.39394 -4.23077,-6.15384c-0.938,-2.63827 -1.24961,-5.81244 -0.76923,-8.46154c0.58633,-3.23342 2.83061,-7.19903 5.38461,-9.23077c2.83955,-2.2589 6.90566,-3.44557 11.15385,-3.46154c4.63136,-0.01741 10.55153,1.89339 13.84615,3.46154c4.52802,2.1552 7.96509,6.01535 9.23077,8.84615c1.48932,3.33099 1.6677,6.33027 0.38461,9.23077c-1.12203,2.53641 -3.8155,5.04366 -6.53846,6.92307c-2.28259,1.57546 -5.39139,2.49855 -8.07692,2.30769c-2.7128,-0.19279 -5.08802,-1.43446 -6.92308,-3.07692c-2.83707,-2.5393 -4.44949,-5.68568 -5.38461,-8.46154c-1.01253,-3.00565 -1.5298,-6.94613 -1.15385,-10c0.38752,-3.14785 1.57934,-5.99725 3.46154,-8.46153c1.65081,-2.16132 4.21281,-3.65347 7.30769,-3.84615c2.6871,-0.16729 5.96409,0.77451 9.23077,2.69231c3.31681,1.94722 6.47035,4.82352 8.07692,8.07692c1.45501,2.94648 2.06319,5.74551 1.92308,8.46154c-0.16339,3.1674 -2.08112,5.2663 -3.84615,6.53846c-2.09307,1.5086 -5.42435,2.03133 -8.46154,1.53846c-3.60167,-0.58447 -7.47585,-2.8427 -10.76923,-5.38461c-3.66634,-2.82978 -6.89265,-5.9054 -9.23077,-9.61539c-2.29271,-3.63794 -3.26894,-7.29171 -3.46154,-10.76923c-0.21269,-3.84027 0.8101,-6.76649 2.69231,-9.23077c2.31113,-3.02584 5.75127,-4.03809 8.84615,-4.23077c4.22259,-0.26289 8.13589,0.21599 13.84615,2.30769c3.88969,1.42482 7.59547,3.12762 10.76923,6.15385c2.56632,2.44703 3.65336,5.36412 3.84615,8.07692c0.16359,2.30189 -0.87703,4.87418 -2.69231,6.53846c-2.04435,1.87429 -4.59426,2.65749 -8.07692,2.69231c-4.24801,0.04247 -7.84399,-0.87645 -11.53846,-3.07692c-4.03357,-2.40244 -6.68982,-4.68853 -8.07693,-7.69231c-1.32968,-2.87943 -1.64671,-6.96281 -1.15385,-10c0.58447,-3.60166 2.76892,-6.45198 5.38462,-8.84615c2.44058,-2.23389 6.06104,-3.8351 9.99999,-4.61538c3.79166,-0.75111 6.23576,-0.87827 10,0c3.20021,0.74667 5.34075,2.02978 6.53846,3.84616c1.14018,1.72913 1.11449,3.58515 0,6.15385c-0.89263,2.05737 -3.70766,4.50355 -6.53846,5.76923c-4.44132,1.98576 -9.21363,2.64114 -13.46153,2.69231c-5.78162,0.06965 -10.52959,-1.63166 -14.61539,-3.84615c-4.40884,-2.38958 -7.36743,-5.33611 -9.23077,-7.69231c-2.38576,-3.0168 -4.03816,-6.52249 -4.23077,-10c-0.19142,-3.45624 0.30603,-7.34275 1.53846,-10c1.44742,-3.12078 3.40995,-5.84958 5.76923,-7.30769c2.63776,-1.63022 5.77393,-2.47785 8.84615,-2.30769c3.47752,0.1926 6.70626,1.32295 9.23077,3.46154c2.49017,2.10949 3.99962,4.5762 4.61538,7.30769c0.51449,2.28225 0.62792,5.45588 -0.38461,8.46154c-0.93512,2.77586 -2.34492,4.65671 -4.61539,6.15385c-1.72913,1.14018 -4.70557,1.46025 -7.30769,0.76923c-2.99699,-0.79589 -5.26504,-3.25531 -7.30769,-6.15384c-1.78625,-2.53469 -3.45966,-6.48138 -3.84615,-10.38461c-0.37899,-3.82743 -0.04678,-6.94212 1.53846,-10.76923c1.12093,-2.70618 2.69388,-6.28333 6.15385,-8.46154c2.47883,-1.56054 5.00529,-2.1145 8.46154,-1.92308c3.47751,0.1926 6.26812,1.3458 9.61538,3.46154c2.79674,1.76776 4.97836,4.48734 5.76923,7.30769c0.73431,2.61863 0.5892,5.51233 -1.15385,8.07692c-1.38435,2.03683 -3.23921,3.64107 -6.53846,4.61539c-3.34023,0.98642 -7.07439,0.9752 -11.15385,-0.38462c-2.44768,-0.81589 -5.60555,-2.45898 -8.46154,-5.38461c-2.09837,-2.14954 -3.84427,-5.32754 -4.23077,-9.23077c-0.2653,-2.6792 -0.24276,-5.87154 1.15385,-8.84615c1.31786,-2.80689 3.96609,-5.68386 6.53846,-7.69231c1.76768,-1.38017 4.98402,-2.11509 8.46154,-2.30769c3.45624,-0.19142 7.02602,0.5572 11.15384,2.69231c4.74596,2.45484 8.72581,5.52593 11.53846,8.84615c2.13859,2.52452 3.299,5.39379 3.07693,8.07692c-0.19297,2.33155 -1.37315,4.56534 -4.23077,5.76923c-2.5804,1.08709 -6.57796,1.09947 -11.15384,0.38462c-5.06992,-0.79204 -9.43353,-2.23888 -15,-5c-4.01818,-1.99312 -8.66101,-5.17389 -11.92307,-8.46154c-2.8797,-2.90229 -4.80015,-5.24449 -5.38462,-8.84615c-0.43126,-2.65754 0.25054,-5.08118 1.92308,-7.69231c1.78458,-2.78604 4.97826,-5.0806 7.69231,-5.76923c3.43707,-0.87208 7.40601,-1.18911 11.53846,0c3.9809,1.1455 7.16238,3.21176 10.38461,6.53846c2.08996,2.15772 4.61308,6.09058 5,9.61538c0.33575,3.05855 0.30116,6.28428 -1.15385,9.23077c-1.60657,3.2534 -4.42058,6.05488 -7.69231,8.07692c-3.65791,2.26071 -8.46154,3.07692 -13.07692,3.07692c-5,0 -9.05997,-0.65998 -13.07692,-2.69231c-3.71219,-1.87814 -5.84584,-3.5296 -7.30769,-6.15385c-1.18377,-2.12505 -1.58014,-4.71176 -0.76923,-7.30769c0.76929,-2.46272 2.57856,-4.38488 4.61539,-5.76923c2.5646,-1.74305 5.80399,-2.35434 8.46154,-1.92308c3.60166,0.58447 6.39121,1.97187 9.23077,4.23077c2.554,2.03174 4.22701,4.1501 4.61538,6.92308c0.32008,2.28539 0.24132,5.50138 -1.15385,8.07692c-1.32103,2.43869 -3.34778,4.7695 -5.38461,6.15385c-2.5646,1.74305 -6.13947,2.49976 -10,2.69231c-4.22552,0.21075 -9.73905,-0.90129 -13.07692,-2.69231c-4.41884,-2.37103 -8.6698,-5.60386 -10.76923,-8.46154c-2.14826,-2.92415 -3.10412,-6.13002 -3.07692,-9.23077c0.02385,-2.71954 1.7809,-5.21649 4.61538,-6.92308c2.94715,-1.77443 6.14174,-2.49754 10.76923,-2.30769c4.67511,0.1918 9.73059,1.66707 14.23077,3.84615c3.56401,1.72577 7.01555,3.97608 8.07692,6.53846c0.7505,1.81188 1.04282,4.74892 0,6.53846c-1.23994,2.12782 -4.05112,4.3523 -8.84615,5.76923c-4.12385,1.21859 -10.00941,1.49416 -16.15384,1.15385c-6.95502,-0.3852 -13.55041,-2.05645 -20.38461,-4.61538c-4.68252,-1.75328 -9.02014,-4.02088 -12.30769,-6.92308c-2.44663,-2.15984 -3.64454,-4.97534 -3.46154,-7.30769c0.19028,-2.42507 2.12749,-4.51207 5,-6.15384c3.28875,-1.87968 6.92308,-2.30769 12.30769,-2.30769c4.23077,0 10.08562,0.8808 15.38461,2.69231c5.87958,2.00998 9.95759,4.66786 14.23077,8.07692c3.42804,2.73483 6.97192,5.925 8.84615,10c1.52467,3.31496 1.80572,7.41473 0.76923,9.61538c-1.54607,3.28257 -4.5191,5.00669 -8.46153,5.76923c-4.17092,0.80673 -9.3352,0.92131 -14.61539,-0.38462c-5.55048,-1.37278 -10.23468,-3.52032 -14.61538,-6.92308c-4.08649,-3.17422 -7.89165,-7.01231 -9.23077,-10.38461c-1.44757,-3.64543 -1.39516,-7.03985 0,-9.61538c1.32103,-2.43868 4.32111,-5.37742 8.46154,-6.53846c4.45937,-1.25048 10.44141,-1.02375 16.15385,0.38461c6.61726,1.63145 13.00856,4.09441 19.61538,8.46154c3.65832,2.41816 8.23987,6.57463 10.76923,11.15384c2.00288,3.62605 2.64998,7.96157 0.76923,11.92308c-1.41898,2.98885 -4.65952,6.21521 -10.38461,8.07692c-4.4497,1.44697 -10.82262,2.11582 -18.07692,1.15385c-5.45907,-0.72392 -11.25512,-2.89678 -16.15384,-5.76923c-4.32593,-2.53658 -7.6242,-5.20813 -9.23077,-8.46154c-1.45501,-2.94648 -1.60071,-6.32398 -0.38461,-8.84615c1.43696,-2.98025 4.42435,-5.22598 8.46154,-6.15384c5.26117,-1.20918 10.8994,-0.55393 16.92307,1.15384c5.15395,1.4612 12.14897,4.21022 16.53846,6.92308c4.90759,3.03306 8.36714,6.5582 9.99999,10.38461c1.39175,3.26144 0.97369,6.68385 -1.53846,10c-2.14122,2.82651 -5.58241,5.15252 -11.53846,6.92308c-5.63957,1.67648 -11.16439,1.89859 -17.30769,1.53846c-6.57227,-0.38528 -13.25895,-2.35944 -17.6923,-5c-4.03357,-2.40244 -6.71874,-4.43837 -7.30769,-7.30769c-0.464,-2.26057 0.44152,-5.26729 2.69231,-7.69231c2.04354,-2.20173 6.44001,-4.03473 11.53846,-4.61538c5.35003,-0.6093 11.21742,0.5342 17.30769,2.30769c5.83878,1.70026 11.44284,4.15048 15.38462,6.92308c3.78814,2.66452 5.96117,6.90512 6.15385,10c0.19119,3.07097 -1.21909,5.69523 -3.84615,8.07692c-3.4782,3.15334 -8.79284,4.8547 -13.46154,5.76923c-5.33783,1.04561 -11.60844,1.3027 -16.53846,0.38461c-3.94764,-0.73514 -7.2498,-2.79103 -9.23077,-5.38461c-1.88221,-2.46428 -2.05232,-4.79182 -0.76923,-7.69231c1.12203,-2.5364 4.01039,-5.37089 7.69231,-7.30769c3.66615,-1.9285 8.07692,-2.30769 12.30769,-2.30769c4.61539,0 9.81759,1.05207 13.07692,2.69231c4.19373,2.11046 6.31081,4.78442 7.30769,8.07692c0.89858,2.96782 0.7855,6.69903 -0.76923,10c-1.54607,3.28259 -5.72826,6.99873 -9.23077,8.84615c-4.56417,2.40741 -9.57711,3.84531 -15.38461,4.23077c-3.45394,0.22925 -8.9982,-1.20253 -12.69231,-3.07693c-3.23575,-1.64183 -5.86847,-4.96322 -6.53846,-6.92307c-0.90575,-2.6495 -0.64297,-5.91765 0.76923,-8.07692c1.64421,-2.51402 4.50884,-3.85223 8.07692,-4.61539c3.77985,-0.80845 9.25109,-0.09106 14.61538,1.15385c4.63427,1.07549 10.09856,3.72028 13.07692,6.15385c3.58642,2.9304 6.27308,6.37346 7.30769,10.38461c0.77447,3.00259 0.7759,6.71514 -0.76923,9.61538c-1.55568,2.92004 -4.37495,5.51744 -8.07693,6.92308c-3.31505,1.25872 -8.10574,1.62378 -11.92307,1.15385c-4.72178,-0.58128 -8.39596,-2.63136 -12.30769,-5.76923c-3.81858,-3.06316 -6.1529,-5.967 -7.69231,-9.61538c-1.56104,-3.69965 -2.2454,-6.23616 -1.53846,-9.23077c0.59278,-2.51105 2.99904,-4.46513 5,-5c2.62739,-0.70232 5.9298,-0.40089 9.23077,1.15385c3.28258,1.54608 6.18515,4.20319 9.23077,7.69231c2.33185,2.67141 4.61163,6.84241 5,9.61539c0.42677,3.04718 -0.12215,6.00681 -1.53846,7.30769c-2.67227,2.45451 -5.75484,3.26899 -9.61538,3.46153c-4.60965,0.2299 -10.45263,-1.36293 -14.61538,-3.07692c-5.09211,-2.09664 -9.48027,-4.67478 -13.07692,-7.69231c-3.33358,-2.79681 -5.50385,-5.60423 -6.53846,-9.61539c-0.77447,-3.00259 -0.85762,-6.05539 1.15384,-8.84615c1.5902,-2.20628 4.54445,-3.45863 7.69231,-3.84615c3.4356,-0.42294 7.40584,0.54354 11.15384,2.30769c4.36035,2.05238 7.50334,4.86256 9.61538,8.07693c1.70278,2.59151 2.62777,5.40692 2.30769,7.69231c-0.38837,2.77298 -2.7931,5.44543 -5,6.53846c-2.84213,1.40764 -6.96051,1.71541 -11.15384,1.15385c-4.34649,-0.58208 -7.95382,-2.28719 -12.30769,-5.38462c-2.88939,-2.05557 -5.548,-4.92359 -6.92308,-8.07692c-1.31354,-3.01221 -1.63422,-6.58167 -1.15385,-9.23077c0.58633,-3.23343 2.35246,-6.16868 5,-8.07692c2.79076,-2.01146 6.17256,-2.68669 10,-2.30769c3.90323,0.3865 7.92968,1.97187 10.76923,4.23077c2.12833,1.69312 4.23077,4.61539 5,6.92307c0.76923,2.30769 1.21728,5.28513 -0.38462,7.30769c-1.86506,2.35483 -5.37564,3.53063 -8.07692,3.84615c-4.21953,0.49286 -8.64888,0.5122 -13.46154,-1.53846c-3.64294,-1.55225 -7.14894,-4.02039 -10,-7.30769c-2.52,-2.90559 -3.92676,-6.13211 -4.61538,-8.84615c-0.87208,-3.43707 -1.31744,-7.3135 -1.15385,-9.61538c0.19279,-2.7128 1.68884,-5.29597 3.07692,-6.15385c2.06923,-1.27885 5.02017,-1.4828 7.69231,-1.15385c3.14786,0.38752 6.65488,2.06872 10,3.84615c3.20421,1.70256 5.90175,4.13186 7.30769,6.15385c1.2803,1.8413 1.44478,3.87391 1.15385,5.38461c-0.39169,2.03384 -2.15266,3.84609 -4.61539,4.61539c-2.59593,0.81091 -6.27515,0.98642 -9.61538,0c-3.29925,-0.97432 -5.85831,-2.9627 -8.84615,-5.38462c-3.17612,-2.57454 -5.35597,-5.2387 -6.15384,-7.69231c-0.72348,-2.22485 -0.75557,-5.19394 0.38461,-6.92308c1.49714,-2.27047 4.14231,-4.19809 8.07692,-5c3.41268,-0.69554 8.15017,-0.93544 13.07692,0c5.13951,0.97583 10.08013,3.32034 14.23077,5.76923c4.31906,2.54827 7.01309,4.42083 8.07692,7.69231c0.72348,2.22485 0.20103,4.79897 -1.92308,6.92308c-2.12411,2.12411 -5.70596,3.45923 -9.23077,3.84615c-4.20551,0.46165 -7.83888,-0.39841 -11.15384,-1.92308c-4.075,-1.87423 -7.8617,-5.22683 -10,-7.69231c-2.52001,-2.90559 -4.41367,-6.38196 -5,-9.61538c-0.61762,-3.40599 -0.24276,-6.64077 1.15385,-9.61538c1.31786,-2.80689 3.24098,-5.63399 5.38461,-7.30769c1.76769,-1.38017 4.63556,-1.86742 7.30769,-1.53846c3.14786,0.38752 6.78317,2.37701 8.84615,4.23077c2.23439,2.00778 3.26857,4.20691 3.46154,6.53846c0.19034,2.29983 -0.06932,4.86009 -1.92308,6.92308c-2.00778,2.23439 -4.17767,3.25979 -6.53846,3.84615c-2.27054,0.56395 -5.07616,0.52578 -7.30769,-0.76923c-2.39883,-1.3921 -4.06264,-2.93475 -5.76923,-5.76923c-1.77443,-2.94715 -2.41206,-5.35929 -2.30769,-8.07692c0.13608,-3.54337 1.61176,-5.68453 3.84615,-7.69231c3.09447,-2.78063 6.1508,-3.87795 10,-4.23077c4.61205,-0.42274 9.24899,-0.05802 14.23077,1.53846c4.63296,1.4847 9.26546,2.87525 12.6923,5.76923c2.70916,2.28789 4.31054,5.36684 4.61538,6.92308c0.5228,2.66892 -0.53099,4.88765 -2.69231,6.53846c-2.46428,1.88221 -6.13787,2.67756 -10.76923,2.69231c-5.01474,0.01597 -9.7533,-1.21247 -14.61538,-3.46154c-4.37393,-2.02326 -8.27455,-4.81592 -10.76923,-7.69231c-2.52001,-2.90559 -3.84615,-6.1299 -3.84615,-9.23077c0,-3.10087 1.43564,-5.81061 3.84615,-8.07692c2.64356,-2.48541 6.49264,-4.09347 10,-4.61539c4.96015,-0.73809 9.32161,-1.24969 14.61538,0c4.7349,1.11776 9.01394,2.86141 11.53846,5c2.49017,2.10949 4.07963,4.49525 4.23077,6.92307c0.12186,1.95737 -1.08973,4.20038 -2.69231,5.76923c-2.21584,2.1692 -5.66693,3.44802 -9.23077,4.23077c-3.40175,0.74715 -7.70295,1.06915 -11.92307,0.76923c-2.7128,-0.19279 -4.81511,-0.98392 -5.76923,-2.30769c-1.00573,-1.39538 -1.1985,-2.88322 0,-5c1.7471,-3.08571 4.03596,-4.90103 7.30769,-6.92307c3.65791,-2.26071 8.05078,-3.95628 12.69231,-5c3.82677,-0.86051 8.0834,-1.77243 12.30769,-1.53846c3.47751,0.1926 7.57104,1.97186 9.61538,3.84615c1.81528,1.66428 2.59181,4.32979 1.92308,6.53846c-0.80372,2.6545 -3.75099,5.13265 -6.92308,7.30769c-2.99254,2.05192 -7.56903,3.86871 -10.76923,4.61538c-3.76424,0.87827 -7.34933,1.20564 -9.61538,0.76923c-2.03384,-0.39169 -3.26778,-1.503 -3.46154,-3.07692c-0.18798,-1.52694 0.39251,-4.04101 1.92308,-6.53846c1.56965,-2.56122 4.06076,-4.84003 6.53846,-6.53846c3.26616,-2.2389 6.91,-3.26903 11.15385,-3.46154c4.61065,-0.20914 8.25693,0.37919 11.92307,2.30769c3.68192,1.9368 7.2216,5.17987 8.46154,7.30769c2.08564,3.57909 2.33297,7.20206 0.76923,10.38461c-1.32471,2.69607 -4.12945,4.83738 -7.30769,6.15385c-3.37103,1.39633 -6.58784,2.08746 -9.61539,1.53846c-3.23342,-0.58633 -5.49327,-1.9173 -6.92307,-4.23077c-1.27885,-2.06923 -1.14695,-5.02067 -0.76923,-8.46154c0.38692,-3.5248 1.66259,-7.0812 3.84615,-10.38461c2.41815,-3.65832 4.48241,-5.64639 8.07693,-7.30769c2.98296,-1.37866 5.36079,-1.95027 8.46153,-1.92308c2.71954,0.02385 5.16517,1.77101 6.92308,3.84615c2.13859,2.52452 3.68692,6.10612 4.23077,9.23077c0.6628,3.80809 0.81406,7.07905 -0.76923,10.76923c-1.22266,2.84964 -3.32016,5.56822 -5.76923,7.30769c-3.65683,2.5973 -7.29461,3.65365 -11.53846,3.84615c-3.45798,0.15686 -7.51591,-0.3996 -11.15385,-2.69231c-3.70998,-2.33811 -6.56487,-5.14341 -8.46154,-8.84615c-1.49817,-2.92477 -2.46441,-6.97806 -1.92308,-9.61538c0.58895,-2.86932 1.91429,-5.56059 5,-7.30769c3.17517,-1.79775 7.33414,-1.79554 12.30769,-1.15385c4.26479,0.55025 9.79755,2.68773 14.23077,5c4.44631,2.3191 7.65393,5.50744 9.61538,8.46154c1.90289,2.86589 2.92378,6.58812 2.30769,10.38461c-0.38965,2.40111 -2.35155,5.47071 -5.38461,7.30769c-3.54324,2.14598 -8.08924,2.63029 -12.30769,2.30769c-5.0441,-0.38574 -8.62508,-1.67016 -12.30769,-4.23077c-2.02199,-1.40593 -3.26829,-4.20223 -3.46153,-6.15385c-0.26529,-2.6792 0.33526,-5.27406 1.92307,-7.30769c2.18224,-2.79496 5.3094,-4.20535 10,-5c4.18853,-0.70959 9.28441,-0.85015 14.61538,0c4.69807,0.74922 10.10424,2.90023 13.46154,5c3.98043,2.4895 6.85497,6.02111 7.69231,8.46154c1.27294,3.71002 0.90331,6.61964 -0.76923,9.23077c-1.78458,2.78604 -5.27781,5.65183 -8.84615,6.92308c-4.13097,1.47169 -9.62769,1.86106 -13.84615,1.53846c-5.0441,-0.38574 -9.66367,-2.2213 -13.84615,-4.61539c-3.89273,-2.22823 -6.37034,-4.47321 -8.07693,-7.30769c-1.33082,-2.21037 -1.76984,-4.69912 -1.15384,-6.92308c0.59864,-2.1613 3.03075,-4.03142 5.76923,-4.61538c2.65984,-0.5672 6.60204,-0.21193 10.76923,1.15385c5.09063,1.66843 8.5595,2.93953 13.46153,6.53846c3.5349,2.59523 5.60416,4.8633 7.69231,8.46154c2.15836,3.71923 2.91042,8.08466 2.69231,11.15385c-0.19279,2.7128 -2.14349,5.95319 -3.84615,7.30769c-2.83955,2.2589 -6.13644,3.09605 -10.38461,3.07692c-3.8653,-0.01741 -8.28246,-1.91367 -10.76923,-3.46154c-3.01044,-1.87383 -5.21114,-4.92847 -5.76923,-6.92307c-0.6304,-2.25299 -0.70657,-4.46519 0.76923,-6.15385c1.62062,-1.85436 3.82244,-2.65403 6.92307,-2.69231c3.86504,-0.04771 7.77233,0.98782 12.69231,3.46154c4.30562,2.16483 9.32172,5.27425 13.07692,8.46154c3.94503,3.34841 5.95213,6.38196 6.53846,9.61539c0.549,3.02755 -0.61716,5.93439 -2.69231,7.69231c-2.52451,2.13859 -5.37153,3.26903 -9.61538,3.46153c-5.37908,0.244 -10.05517,-0.59917 -13.84615,-1.92307c-3.91082,-1.36575 -7.036,-3.35635 -8.46154,-5c-1.26,-1.4528 -1.59541,-3.16475 -1.15385,-4.23077c0.62446,-1.50758 2.67436,-2.49963 5.76923,-2.69231c3.07098,-0.19119 7.01521,0.13174 11.53846,1.92307c5.11996,2.02766 10.5307,4.77237 14.23077,7.30769c3.61752,2.47877 6.67239,5.49776 7.69231,8.07692c0.86033,2.17559 -0.09147,5.20966 -1.53846,6.92308c-2.28789,2.70915 -5.28833,4.23746 -9.23077,4.99999c-4.17092,0.80672 -9.29063,1.19135 -13.46154,0.38462c-3.94244,-0.76254 -6.82838,-2.34046 -9.23077,-4.61539c-1.78821,-1.69333 -2.88396,-4.20691 -3.07692,-6.53846c-0.25378,-3.06644 0.37521,-5.20554 1.92307,-7.69231c1.87383,-3.01044 4.04282,-4.75414 7.69231,-5.76923c2.98746,-0.83096 6.37428,-1.16727 10.38461,0.38461c3.38393,1.30949 6.40872,4.40979 8.84615,7.69231c2.16315,2.91315 3.45998,6.87109 3.84615,11.15385c0.24178,2.68143 -0.39251,6.3487 -1.92307,8.84615c-1.56965,2.56123 -4.43837,4.41105 -7.30769,5c-3.39085,0.696 -6.98779,-0.22493 -10,-1.53846c-3.94167,-1.71884 -7.65553,-4.16399 -10.76923,-6.92307c-2.65396,-2.35169 -4.79184,-4.79663 -5.38462,-7.30769c-0.35346,-1.49731 -0.50778,-3.01977 0.38462,-3.84615c1.16354,-1.07748 3.14499,-0.63647 5,0c2.44042,0.83733 5.04464,2.24503 8.84615,5c3.11433,2.25696 5.97898,4.84026 7.69231,7.30769c1.76861,2.54704 2.42954,5.35032 2.30769,7.30769c-0.15115,2.42782 -2.17281,3.84928 -5,4.61539c-2.99293,0.81102 -6.98666,0.59654 -11.15384,-0.76923c-5.09064,-1.66843 -9.28532,-4.139 -11.92308,-5.76923c-3.53892,-2.18717 -6.1379,-3.85824 -7.30769,-5.38461c-1.2599,-1.64397 -1.48821,-3.12643 -1.15385,-4.23077c0.40186,-1.32725 1.89453,-1.72983 3.84615,-1.92307c2.29646,-0.22739 5.46109,0.62494 8.46153,2.30769c3.16472,1.77489 6.62572,4.54537 8.46154,6.92307c2.022,2.61884 2.87531,4.97533 2.69231,7.30769c-0.19027,2.42506 -2.21655,4.76175 -4.61538,6.15385c-2.23154,1.29501 -6.51933,2.29028 -10.38462,2.30769c-4.24817,0.01913 -8.24568,-1.58833 -12.30769,-3.84615c-3.63628,-2.02118 -7.75205,-5.33611 -9.61538,-7.69231c-2.38575,-3.0168 -4.22787,-6.08291 -4.61539,-9.23077c-0.28196,-2.29041 0.23324,-4.82654 2.30769,-6.15385c2.17329,-1.39055 5.04966,-2.15455 8.84615,-1.53846c3.60167,0.58447 7.08965,2.3966 10,4.23077c3.70999,2.33812 6.03427,4.40916 8.07693,7.30769c1.78625,2.5347 2.23112,5.40945 1.92307,7.30769c-0.38965,2.40112 -1.63925,3.90698 -3.84615,5c-2.84213,1.40763 -7.35661,1.82406 -11.92307,1.15385c-3.97294,-0.58311 -8.89283,-2.60738 -13.84615,-5.38462c-4.66066,-2.61315 -8.8456,-4.93123 -13.46154,-9.23077c-3.38897,-3.15667 -5.72955,-5.61973 -6.92308,-8.84615c-1.10038,-2.97461 -1.73353,-6.09999 -0.38462,-8.46153c1.2215,-2.13847 3.82566,-2.49951 6.53846,-2.69231c2.68553,-0.19086 5.8381,1.43986 8.07692,3.07692c1.98797,1.45364 2.88367,3.81761 3.07692,5.76923c0.26529,2.67921 0.06225,5.17013 -1.15385,7.69231c-1.43696,2.98025 -3.43774,4.64561 -5.38461,6.15384c-3.0405,2.35547 -4.95835,3.53683 -7.69231,5c-1.51653,0.81162 -3.46154,0.38461 -3.46154,1.15385c0,0.38462 1.16133,0.1516 2.69231,0c1.95162,-0.19324 4.62016,-0.5762 8.46154,-0.38461c3.86054,0.19254 8.07692,0.38461 11.92307,0.38461c4.23077,0 8.5509,0.56201 12.69231,-0.38461c3.20353,-0.73225 5.96772,-1.86414 7.30769,-4.23077c0.78133,-1.37997 0.16432,-4.33157 -1.53846,-6.92308c-2.11204,-3.21437 -6.48017,-6.62371 -10.38461,-9.23077c-4.17052,-2.78472 -10.28037,-5.78315 -16.92307,-7.30769c-4.56048,-1.04666 -10.04089,-1.74066 -14.23077,-1.15385c-2.77298,0.38837 -6.10789,2.29147 -6.92307,4.61539c-0.89117,2.54053 -0.34139,4.9039 2.30769,7.69231c2.069,2.17782 6.38648,4.94836 11.15385,6.92307c4.49471,1.86177 9.93876,3.4427 15.76923,4.23077c5.34969,0.72309 11.18192,1.33772 16.92307,0.76923c5.85485,-0.57974 9.93443,-1.86213 13.84615,-5c2.12144,-1.70175 3.69455,-5.82477 3.07693,-9.23077c-0.58633,-3.23342 -3.07141,-6.92928 -6.53847,-10c-4.55245,-4.03204 -9.143,-6.0354 -14.61538,-7.69231c-6.07106,-1.83817 -11.91347,-2.88451 -17.69231,-3.07692c-4.99723,-0.16639 -9.87517,0.6444 -12.30769,3.07692c-1.82439,1.82439 -2.16533,4.78314 -1.15385,7.30769c1.23052,3.07125 5.69253,5.54485 10.38462,7.69231c4.54646,2.08081 12.28907,3.97886 17.30769,4.61539c7.66924,0.97271 13.49768,1.03101 20,0c5.81088,-0.92138 11.93348,-2.9578 15,-5.76923c1.81528,-1.66428 3.48761,-5.47721 2.69231,-8.84615c-0.98797,-4.1851 -4.78739,-7.22134 -8.46154,-9.61538c-4.75787,-3.10018 -9.89576,-5.39853 -16.53846,-6.92308c-6.84072,-1.56999 -14.26535,-2.10238 -18.84615,-1.53846c-4.72178,0.58128 -8.97263,2.02764 -10.76923,5.38461c-0.92539,1.72911 -0.85762,5.28616 1.15385,8.07693c2.54432,3.53006 6.75267,5.72842 11.92308,8.07692c5.98394,2.71802 12.63041,4.63245 18.84615,5.38461c6.88353,0.83297 13.48461,1.06785 20.38461,0.38461c5.41281,-0.53597 9.55692,-1.86456 12.30769,-4.23077c2.68824,-2.31242 3.94521,-5.11067 3.07692,-8.46153c-0.9933,-3.83326 -4.84801,-7.10954 -10,-11.15385c-4.11492,-3.23021 -10.29942,-6.37944 -16.15384,-8.46154c-6.07459,-2.1604 -12.29633,-3.16112 -17.69231,-3.84615c-3.45511,-0.43864 -7.35378,-1.26625 -9.61539,0.38462c-1.12009,0.81761 -1.06237,2.90196 0.38462,4.61538c2.28789,2.70916 6.08805,4.75195 10.76923,6.92308c5.31451,2.46486 11.47243,4.87122 18.46153,6.53846c5.72291,1.36519 11.92308,1.92307 17.30769,1.92307c4.61538,0 8.01914,0.11472 10,-1.53846c1.47645,-1.23221 1.89321,-3.67616 0.38461,-5.76923c-1.90824,-2.64754 -6.364,-5.68802 -11.53846,-8.46153c-4.85361,-2.60153 -11.05273,-4.96418 -18.46153,-6.92308c-5.32391,-1.40765 -11.15385,-1.92308 -16.92308,-1.92308c-3.07692,0 -6.84472,0.83125 -8.07692,2.30769c-1.10212,1.32058 -1.17527,4.76624 0,7.30769c1.74619,3.77604 4.84801,6.72493 10,10.76923c4.11492,3.23021 10.42624,7.23756 15,10c6.21182,3.75179 10.45483,6.02953 14.61538,8.46153c3.13254,1.83109 5.63147,2.61263 5.76923,3.46154c0.08713,0.5369 -1.89526,0.29549 -4.23077,-0.38461c-4.5677,-1.33012 -9.59366,-2.75201 -16.92307,-5.38462c-7.67009,-2.75497 -13.089,-4.58536 -20.76923,-7.69231c-8.47499,-3.42846 -14.27968,-6.05816 -19.61538,-8.84615c-4.27129,-2.23181 -7.29045,-4.44199 -7.69231,-5.76923c-0.33437,-1.10434 1.51736,-2.34582 5,-2.30769c5.81994,0.06371 10.48318,2.06021 16.53846,4.61539c6.65778,2.80943 12.78626,5.95338 18.07692,10.76923c3.42496,3.11758 5.75234,6.80927 6.53846,10c0.74179,3.01083 -0.56397,5.99919 -2.69231,7.69231c-2.83955,2.2589 -8.07311,3.89935 -13.07692,4.23077c-6.91859,0.45823 -12.80378,0.02939 -19.23077,-1.92307c-6.28853,-1.91039 -11.40749,-4.29388 -15.38461,-7.69231c-2.89465,-2.47346 -4.22787,-4.92907 -4.61538,-8.07692c-0.37595,-3.05387 1.21971,-6.15262 3.46154,-7.69231c3.12251,-2.14454 7.74116,-1.84939 11.15385,-1.15385c3.93461,0.80192 8.99723,3.6423 12.69231,6.53846c3.21788,2.52214 6.09782,5.99074 7.69231,9.61538c1.46923,3.3399 1.86078,7.00539 1.15385,10c-0.79037,3.34808 -3.68304,5.7132 -7.30769,7.30769c-4.45321,1.95898 -8.10689,2.49035 -13.46154,1.92307c-5.47621,-0.58015 -10.15231,-2.40998 -14.61538,-5c-3.59824,-2.08813 -6.32982,-4.27818 -7.30769,-6.53846c-1.07988,-2.49606 -0.28785,-4.88114 1.15385,-6.15385c2.32465,-2.05216 5.77971,-2.17686 8.84615,-1.92307c4.66311,0.38593 9.76124,2.41847 15,5.38461c4.36385,2.47077 7.99366,5.52322 10.76923,9.23077c2.17452,2.90468 3.34691,6.21631 2.69231,9.61539c-0.39168,2.03384 -2.6159,4.39416 -5.76923,5.76923c-3.01221,1.31354 -7.28657,2.27287 -10.76923,2.30769c-4.248,0.04247 -7.48047,-0.81262 -10.76923,-2.69231c-2.87251,-1.64178 -3.97535,-3.01564 -5.38461,-6.15385c-0.84849,-1.88944 -1.21106,-5.05145 -0.76923,-6.92307c0.59278,-2.51106 2.87356,-4.40722 5.38461,-5c3.36894,-0.7953 5.85004,-0.2413 9.61538,1.15385c3.55203,1.31612 6.62797,2.97433 8.84615,5c1.60659,1.46716 2.20504,3.47882 1.92308,5.76923c-0.19376,1.57393 -2.20434,3.33329 -3.84615,3.84615c-2.59594,0.81091 -6.23705,0.84676 -9.61538,0c-4.01814,-1.00711 -7.86629,-4.02087 -11.15384,-6.92307c-3.66994,-3.23976 -6.06196,-6.35619 -8.84615,-11.15385c-2.15835,-3.71922 -3.45923,-6.85981 -3.84615,-10.38461c-0.33574,-3.05855 0.44152,-6.42114 2.69231,-8.84615c2.04354,-2.20172 5.36331,-3.07692 8.84615,-3.07692c3.48284,0 8.18334,1.73786 12.30769,4.23077c4.7472,2.86938 8.93305,6.54609 11.92307,10.76923c2.78474,3.9332 3.61078,9.27744 3.07692,12.30769c-0.78107,4.43353 -3.16377,6.74507 -7.30769,8.46154c-4.39529,1.82059 -8.56143,1.7608 -12.69231,0.76923c-6.04202,-1.45033 -10.42379,-4.94836 -15,-8.46153c-5.43181,-4.17001 -9.32711,-8.21118 -11.15384,-12.30769c-2.13055,-4.77782 -2.56822,-9.41849 -1.15385,-13.07692c1.6174,-4.18358 5.06143,-7.67539 8.07692,-10c4.23179,-3.26224 8.80787,-4.22993 14.61538,-4.61539c4.22148,-0.28019 10.11641,0.91488 13.46154,2.69231c3.20421,1.70256 6.32711,4.36594 7.30769,7.30769c0.98058,2.94175 0.71577,6.25616 -0.38461,9.23077c-1.49191,4.03303 -3.90085,7.06113 -7.30769,8.84615c-3.23201,1.69342 -6.58812,2.53917 -10.38461,1.92308c-3.60167,-0.58447 -5.92546,-2.60886 -7.30769,-5.38461c-1.30568,-2.62203 -1.6983,-5.38795 -1.53846,-9.23077c0.19247,-4.62737 1.26912,-8.15976 2.69231,-12.30769c1.62268,-4.72937 3.15392,-7.94911 5.76923,-10.76923c2.78011,-2.99783 6.15701,-3.98558 9.23077,-3.84615c4.24385,0.1925 9.30549,1.79585 14.61538,5c4.29362,2.5909 9.35895,6.82708 11.92307,10.38461c3.24339,4.49996 4.42271,8.05898 4.61539,11.15385c0.23899,3.83872 -0.99192,7.22904 -4.23077,9.23077c-3.10384,1.91827 -7.76864,2.33854 -11.92307,1.53847c-6.10154,-1.17505 -11.03569,-4.61418 -17.30769,-9.23077c-4.83848,-3.56143 -10.00352,-8.54204 -13.84615,-13.84615c-3.44436,-4.75436 -5.95781,-9.90155 -6.53846,-15c-0.3917,-3.43931 0.3077,-7.22327 2.69231,-10.38462c2.62041,-3.47395 7.24653,-5.28029 11.92307,-6.15384c6.09629,-1.13876 12.73488,-0.94965 19.61538,0.76923c6.97097,1.74148 14.09913,4.18196 19.61538,7.69231c4.86727,3.09735 9.21364,7.06372 10,10.76923c0.63875,3.0099 -0.3722,5.84113 -3.84615,8.46154c-3.16135,2.38461 -7.27332,4.03378 -13.07693,5c-5.74126,0.95584 -12.75111,1.2405 -17.6923,0.38462c-4.32095,-0.74844 -8.53815,-3.14499 -10,-5.76923c-1.18377,-2.12505 -1.52098,-5.46324 -0.76923,-8.07692c1.04706,-3.64044 3.9134,-7.27719 7.30769,-10c3.91173,-3.13788 8.69276,-5.57545 13.46154,-6.53846c4.91554,-0.99265 9.72173,-0.8009 15,0.76923c5.1347,1.52742 9.96729,3.78753 13.46154,6.92308c3.04298,2.73061 4.37965,6.55826 3.84615,10c-0.58025,3.74332 -3.36092,7.4717 -8.07693,11.15385c-3.53538,2.76033 -8.7766,5.22282 -14.61538,6.92307c-6.09027,1.77349 -13.12257,2.62271 -18.46154,1.92307c-5.92022,-0.77581 -11.03289,-3.54282 -14.61538,-6.92307c-3.76359,-3.55113 -4.80732,-6.90512 -5,-10c-0.21509,-3.45485 1.25847,-6.80634 3.84615,-9.23077c2.80674,-2.62966 6.04745,-4.41872 10.76923,-5c3.81734,-0.46994 8.93503,0.50555 13.84615,2.30769c5.4997,2.01812 11.64489,5.22423 15.76923,8.07692c4.74483,3.28186 9.31269,7.7985 10.76923,10.76923c1.76774,3.60546 2.05243,8.18603 1.15385,11.15384c-0.99689,3.2925 -4.06766,6.48244 -7.69231,8.07693c-3.3399,1.46923 -8.53685,2.10008 -13.46154,1.15385c-6.33151,-1.21655 -11.06112,-3.79905 -16.92307,-8.07693c-5.29073,-3.86102 -9.72549,-7.97835 -13.84615,-12.69231c-3.95401,-4.52332 -6.15094,-8.3906 -6.53846,-11.53846c-0.32896,-2.67214 1.33732,-5.4951 4.61539,-6.53846c4.82054,-1.53432 9.72685,-1.30722 16.53846,0.38462c5.90198,1.46591 12.83536,3.91096 19.99999,7.30769c6.685,3.16933 13.25707,7.10355 18.07693,11.53846c4.00267,3.68299 6.53555,7.62138 6.92307,10.76923c0.32896,2.67213 -1.64635,5.617 -5.38461,6.92307c-4.41721,1.54329 -9.69854,1.29314 -16.15385,0c-8.23649,-1.64995 -15.43074,-5.29385 -22.30769,-8.84615c-5.8092,-3.00076 -12.30769,-7.30769 -16.15384,-10.76923c-3.84615,-3.46154 -7.41447,-6.74418 -8.46154,-10.38462c-0.75175,-2.61368 -1.165,-6.16956 1.53846,-8.07692c2.28793,-1.61419 6.97274,-1.76993 10.76923,-1.15385c4.80222,0.77929 10.84604,3.31249 16.92308,6.53846c6.23637,3.31055 12.48442,7.90879 15.76923,11.53846c3.66799,4.05308 6.07224,8.00834 6.15384,12.30769c0.05161,2.71915 -1.24069,6.11162 -3.84615,8.07692c-3.16135,2.38461 -8.08003,3.23929 -12.30769,3.07693c-5.01108,-0.19245 -9.74447,-1.27757 -15.38461,-4.23077c-4.73362,-2.47854 -8.44583,-4.70437 -11.15385,-8.46154c-1.7127,-2.37624 -2.61324,-5.76038 -2.30769,-8.84615c0.35954,-3.63102 2.35245,-6.16868 5,-8.07692c2.79076,-2.01146 6.93539,-3.0149 11.15385,-2.69231c5.0441,0.38574 10.17223,2.35083 15,5c5.61189,3.07945 9.00146,6.43403 10.76923,9.23077c2.11573,3.34725 2.99872,7.01327 2.30769,9.61538c-0.79589,2.99699 -3.5955,5.81417 -7.30769,7.69231c-4.01695,2.03233 -10.01567,3.10288 -15.38461,2.69231c-5.0441,-0.38573 -10.80613,-2.23 -16.53846,-5c-4.64614,-2.24512 -10.25141,-5.85853 -13.46153,-8.84615c-3.78782,-3.52527 -5.80085,-6.89593 -5.76923,-9.61539c0.0272,-2.33937 1.42708,-5.37109 4.61538,-6.92308c3.52669,-1.7167 7.01602,-1.18592 13.07692,0.38462c5.88687,1.52544 11.3068,4.3268 17.30769,7.69231c6.32944,3.54977 11.93413,7.68212 16.53846,12.69231c2.96733,3.2289 4.80721,6.90258 5,9.61538c0.19086,2.68553 -1.35468,5.70454 -3.84615,6.92308c-3.27775,1.6031 -7.33551,2.06522 -12.30769,1.53846c-5.47621,-0.58015 -10.43416,-2.57499 -16.92307,-5.38461c-4.26472,-1.84657 -9.36438,-4.44405 -13.84615,-8.07693c-3.17612,-2.57453 -4.97136,-4.85407 -5.76923,-7.30769c-0.72348,-2.22485 0.29088,-4.36927 3.07692,-6.15385c2.61113,-1.67254 6.93014,-2.56293 11.53846,-2.30769c6.95502,0.38521 12.43314,1.96082 19.23077,4.61539c7.8574,3.06842 13.80093,6.11087 19.23077,10.76923c4.54105,3.89585 8.26168,8.32141 8.84615,11.92307c0.43126,2.65755 -0.02618,5.73826 -2.30769,7.69231c-1.70333,1.45885 -5.38935,2.51684 -10,2.30769c-4.24385,-0.1925 -8.96087,-1.70663 -13.46154,-4.23077c-3.16472,-1.77489 -6.35319,-3.93539 -7.69231,-7.30769c-1.44757,-3.64543 -1.37438,-5.87891 -0.38462,-9.61538c0.96997,-3.66174 4.43696,-7.85807 7.30769,-10.76923c3.63323,-3.68439 6.62881,-6.14664 10.76923,-7.30769c4.45937,-1.25048 10.12271,-0.30277 14.23077,1.53846c5.18208,2.32261 10.61734,5.41969 15.38461,8.84615c4.8785,3.50641 6.92926,6.0054 8.07693,9.61538c0.59418,1.86899 -0.48019,4.25906 -3.07693,5.76923c-2.84069,1.65205 -8.11279,2.08817 -12.30769,1.53846c-5.92022,-0.77581 -10.87714,-3.27011 -15.76923,-6.15385c-5.5145,-3.25063 -9.51642,-6.72826 -11.53846,-10c-1.35642,-2.19474 -2.71837,-5.0926 -1.92307,-8.46153c0.59278,-2.51105 2.75935,-5.41341 6.15385,-7.69231c2.85615,-1.91748 7.29171,-2.88432 10.76923,-3.07692c3.07221,-0.17015 6.12216,0.91803 6.53846,1.92308c0.29437,0.71068 -0.31589,2.0209 -1.92307,3.07692c-2.59151,1.70278 -6.09517,2.93435 -10.38461,3.84615c-4.94827,1.05185 -11.15678,1.31837 -15.76923,1.15385c-5.3949,-0.19243 -10.59619,-1.08955 -14.23077,-3.07692c-2.90296,-1.58732 -5.5552,-3.60794 -6.15384,-5.76923c-0.51333,-1.8533 0.85275,-4.90104 2.69231,-6.53846c2.71029,-2.41247 7.27004,-4.06701 11.15384,-4.61538c4.5859,-0.64751 10.10697,-0.28323 16.53846,2.30769c4.31068,1.73656 11.17976,5.22836 15.38461,8.84615c4.33427,3.72913 7.30479,8.39061 7.69231,11.53846c0.37595,3.05387 -1.10129,6.29281 -4.23077,8.46154c-3.81976,2.64709 -8.06511,3.60471 -13.46154,3.46154c-6.19955,-0.16447 -12.4122,-2.46504 -18.46153,-5.38462c-6.66282,-3.21567 -14.03758,-7.82961 -18.07692,-11.15384c-5.67377,-4.66931 -9.36858,-8.57756 -11.15384,-12.69231c-1.11448,-2.56869 -0.60452,-5.93206 1.15385,-8.07692c2.06907,-2.52386 6.10975,-4.22964 11.15384,-4.61538c5.36894,-0.41058 12.8177,1.61832 21.53846,5.38461c7.42336,3.20597 15.40281,7.28258 22.30769,12.30769c5.78455,4.20979 10.98001,8.40008 12.69231,13.46154c0.99371,2.93734 0.82154,6.45592 -1.15385,8.84615c-2.25894,2.73334 -6.88718,4.61464 -13.07692,5c-6.52583,0.40629 -13.89323,-1.032 -20,-3.46154c-7.3674,-2.93108 -14.59993,-6.37144 -20,-10.38461c-4.58917,-3.41055 -7.47124,-7.02675 -8.84615,-10.38461c-1.34366,-3.28154 -1.24031,-7.08096 0,-10c1.41896,-3.33949 4.8279,-5.98446 9.23077,-6.92307c5.27969,-1.12555 12.00511,-0.28835 19.23077,1.92308c7.79305,2.38507 15.56881,5.86622 22.30769,10.38461c5.94218,3.98421 11.37517,8.90139 13.46154,13.46154c1.67063,3.65147 1.87003,7.68243 0,10.38461c-2.32664,3.36195 -7.23844,5.39178 -12.69231,6.15385c-5.72641,0.80015 -12.79468,-0.0214 -18.84615,-1.92308c-8.2456,-2.59119 -15.11516,-6.37566 -21.15384,-10.76923c-5.10091,-3.71127 -10.31457,-8.28951 -12.30769,-12.30769c-1.84074,-3.71099 -2.45685,-7.51476 -1.15385,-11.15385c1.40242,-3.91674 4.77116,-7.35653 8.84615,-9.23077c4.41995,-2.03289 10.07737,-2.00939 16.15384,-0.76923c5.48697,1.11985 12.94207,4.1958 17.6923,7.30769c5.72817,3.75255 8.96069,6.86025 10.38461,10.76923c1.19206,3.27248 0.94016,6.75112 -0.76923,10.38461c-1.18066,2.50965 -4.01416,5.45143 -8.46154,7.30769c-3.70567,1.54668 -9.30834,2.01329 -13.07692,1.15385c-4.38912,-1.00096 -8.27761,-3.24812 -11.15384,-6.15385c-2.49456,-2.52014 -3.98686,-5.34518 -5,-9.23077c-0.89467,-3.43126 -1.34556,-7.31203 -1.15385,-11.53846c0.1925,-4.24385 0.94618,-7.46603 3.46154,-9.61538c2.61534,-2.23479 5.84178,-2.02365 10,-1.15385c3.57148,0.74708 7.56449,3.15393 10.38461,5.76923c2.99783,2.78011 5.37959,6.44505 5.76923,8.84615c0.43126,2.65754 0.48832,5.26678 -1.15385,7.69231c-1.82965,2.70245 -5.38461,4.61538 -7.69231,5.38462c-3.46154,1.15385 -7.39214,1.76187 -12.30769,0.76923c-3.57658,-0.72226 -8.44896,-3.09973 -11.92307,-5c-4.98218,-2.72514 -8.62933,-5.1691 -11.15385,-7.30769c-2.07514,-1.75791 -3.64856,-3.39375 -3.84615,-4.23077c-0.08837,-0.37433 0.73376,-1.3447 2.30769,-1.53846c1.90867,-0.23497 4.63026,-0.05323 8.84615,1.15384c3.86039,1.10529 8.60651,2.78551 12.6923,5c4.40884,2.38958 8.07693,5.38461 10,8.07692c1.92308,2.69231 2.91042,5.39236 2.69231,8.46154c-0.19279,2.7128 -1.81908,5.85725 -3.46154,7.69231c-2.17655,2.43178 -5.38462,3.84615 -8.84615,5c-3.46154,1.15385 -6.55025,1.82397 -10,1.53846c-2.33155,-0.19296 -4.16324,-0.80688 -4.61538,-1.53846c-0.2022,-0.32717 0.77211,-0.81623 1.15385,-0.76923c1.57393,0.19376 3.05313,1.5687 5,3.07693c3.0405,2.35547 6.62976,6.05295 9.61538,8.84615c3.57481,3.34442 5.81517,5.73051 8.07692,8.46153c1.57082,1.89674 2.48634,3.25557 3.84615,4.61539c1.35982,1.35983 2.15881,1.83407 4.23077,2.69231c2.93019,1.21373 6.1763,1.60863 10.76923,1.15385c3.90324,-0.3865 8.41071,-1.87223 11.53846,-4.61539c3.07381,-2.69585 4.42259,-7.28719 4.61539,-10c0.27265,-3.83648 -1.24973,-8.69323 -3.46154,-11.15384c-3.09612,-3.44438 -8.39657,-5.97996 -13.07692,-7.30769c-6.46204,-1.83317 -12.37901,-1.95648 -18.07692,-0.76923c-5.48234,1.14233 -9.59408,3.05563 -13.07692,6.53847c-3.48284,3.48284 -5.36548,7.67106 -5.38462,11.15384c-0.02124,3.86528 1.69133,6.84019 4.61538,8.84615c4.68278,3.21249 9.5643,4.80694 15,6.15385c7.24866,1.79614 16.91472,2.69231 25.76923,2.69231c8.8545,0 18.95424,-1.97018 24.23076,-3.84615c8.27971,-2.94371 13.42464,-6.3 16.92308,-11.15385c3.52006,-4.88383 4.41007,-9.26535 3.84615,-13.84615c-0.58128,-4.72179 -4.00677,-9.48895 -8.84615,-13.46154c-5.52975,-4.53931 -12.52303,-8.52367 -21.15385,-11.53846c-9.07752,-3.17083 -18.7603,-5.49483 -28.46153,-6.92308c-8.02695,-1.18176 -17.38904,-1.4535 -23.46154,-0.38461c-6.71221,1.18148 -10.95698,3.66497 -12.6923,7.69231c-2.00185,4.64589 -1.2631,9.05996 0.76923,13.07692c3.13022,6.18697 8.19094,11.14448 15,15.76923c5.56564,3.78021 12.95129,7.3199 18.46153,8.84615c5.67001,1.5705 10.02526,2.00011 14.23077,1.53846c3.5248,-0.38692 6.59928,-2.40849 7.69231,-4.61539c1.40763,-2.84213 1.1533,-6.27626 0,-9.23077c-1.75241,-4.48931 -3.95441,-6.50703 -7.30769,-8.84615c-3.95258,-2.75717 -8.04801,-3.95566 -10.76923,-4.61538c-3.8119,-0.92414 -7.56748,-1.9855 -10,-0.76923c-1.45951,0.72976 -2.29273,2.72211 -1.92308,5c0.38965,2.40112 2.89497,5.24238 6.92308,8.07692c4.80129,3.37862 10.38461,5.76924 17.30769,8.07693c6.92308,2.30769 14.17255,4.24718 20.76923,4.99999c7.27061,0.82972 11.64163,0.96484 15.38461,0c2.83642,-0.73115 4.51488,-2.40671 3.84615,-4.61538c-0.80372,-2.6545 -4.05615,-5.00393 -8.84615,-6.92308c-4.85606,-1.94562 -12.29739,-3.65372 -17.6923,-3.84615c-6.5343,-0.23308 -11.33305,0.45364 -14.23077,2.30769c-2.07446,1.3273 -3.46154,3.42971 -3.46154,5.76923c0,2.33952 1.0521,4.66455 3.84615,7.30769c3.02223,2.85899 7.16263,4.62477 11.92307,6.15385c4.88557,1.56927 10.00573,2.15299 14.61539,1.92308c3.86053,-0.19255 7.6076,-1.22715 9.61538,-3.46154c1.85375,-2.06298 2.38707,-5.07512 1.53846,-8.84615c-1.25529,-5.57822 -4.40487,-9.78765 -8.84615,-15c-4.41316,-5.17934 -11.31706,-11.7841 -17.6923,-17.30769c-5.5839,-4.83796 -12.87371,-10.27228 -18.46154,-14.23077c-4.09203,-2.89884 -7.13123,-3.72825 -6.92307,-4.23077c0.14719,-0.35534 0.66993,0.51045 3.07692,2.30769c3.33351,2.48905 8.77541,5.88061 15.38461,10c7.61301,4.74504 15.51608,9.41415 23.84615,15c6.64719,4.45736 11.24221,7.53001 15.76923,11.92307c3.92294,3.80685 5.95293,6.19991 5.38461,8.07692c-0.31525,1.04119 -2.75952,1.83271 -6.15385,1.15385c-4.9029,-0.98058 -10.5416,-4.74479 -16.92307,-8.84615c-7.89895,-5.07664 -13.47211,-9.60342 -19.99999,-15.38461c-6.93433,-6.14116 -11.03948,-10.20794 -14.23077,-15.38461c-2.52898,-4.10233 -3.29411,-8.58284 -2.30769,-11.92308c1.46148,-4.94887 4.54176,-8.79213 9.61538,-11.53846c3.95902,-2.143 9.99149,-2.88338 16.53846,-2.69231c6.58075,0.19206 13.18167,2.4777 18.07692,5c5.51295,2.84058 9.98464,6.46659 12.30769,11.15384c1.78313,3.59787 2.46289,8.18054 1.53847,11.53846c-1.23351,4.48064 -4.38217,7.31856 -8.07692,9.23077c-4.75764,2.46232 -11.19744,3.83073 -17.69231,3.07692c-6.67223,-0.77439 -14.37208,-3.96304 -20.38461,-7.30769c-5.13052,-2.854 -9.97482,-6.6837 -12.69231,-11.15384c-2.23376,-3.67443 -3.30012,-8.1685 -2.30769,-12.69231c0.96465,-4.39724 4.21053,-9.08461 8.07693,-11.15384c4.28938,-2.29561 9.2968,-2.79345 14.99999,-1.92308c6.37354,0.97267 11.54887,3.72702 14.61539,6.53846c3.63056,3.32857 5,8.46154 5,12.6923c0,3.84615 -1.29409,9.02217 -3.84615,12.30769c-3.17422,4.0865 -7.1552,6.86791 -12.69231,9.23077c-5.25891,2.24414 -11.55112,3.07439 -17.30769,2.69231c-5.8075,-0.38546 -11.36896,-1.94167 -16.15384,-5c-3.24073,-2.07137 -5.76917,-4.84497 -6.53846,-7.30769c-0.81091,-2.59593 -0.38462,-5 0.38462,-7.69231l0,-0.38462" stroke-width="4" transform="rotate(-46 69.0156 65.3679)"/>
  <path fill="none" stroke="#000" id="svg_6" d="m100.15384,65.73077c0,0 -0.38461,0 -1.15385,0c-0.76923,0 -1.55904,-0.20789 -2.30769,-0.38461c-0.83702,-0.19759 -1.53847,-0.76923 -1.53847,-1.15385c0,-0.38461 -0.38461,-0.76923 -0.38461,-1.15385c0,-0.38461 -0.18702,-0.70144 -0.38461,-1.53846c-0.17673,-0.74865 0,-1.15385 0,-1.53846c0,-0.38462 -0.29437,-0.82779 0,-1.53846c0.20815,-0.50252 0.56702,-0.82667 0.76923,-1.15385c0.45215,-0.73158 1.18312,-0.62204 1.53847,-0.76923c0.50252,-0.20815 0.94569,-0.65132 1.15384,-1.15385c0.14719,-0.35534 0.49727,-0.11265 0.76923,-0.38461c0.27197,-0.27197 0.38461,-0.38462 0.76923,-0.38462c0.38461,0 0.76923,0 1.15385,0c0.38461,0 1.26649,-0.27197 1.53846,0c0.27197,0.27197 0.11265,0.49727 0.38461,0.76923c0.27197,0.27196 1.15385,0.76923 2.30769,1.53846c1.15385,0.76923 2.80525,1.7205 5,3.07692c1.63586,1.01102 3.03406,1.99772 5,3.07692c0.7539,0.41385 1.15385,0.76923 1.15385,1.15385c0,0.38461 -0.00001,0.76923 -0.76923,1.53846c-0.38461,0.38462 -1.56384,1.1068 -2.30769,1.53847c-1.19941,0.69604 -2.29379,1.1984 -3.46154,1.53846c-1.52257,0.44337 -3.86344,0.66657 -6.15384,0.38461c-3.14786,-0.38752 -5.80506,-1.84486 -9.23077,-3.46154c-3.11106,-1.46819 -6.32782,-3.25165 -9.61538,-6.15384c-2.03886,-1.79987 -3.80669,-3.67744 -4.61539,-5.76923c-0.70718,-1.82922 -0.87252,-3.87573 -0.38461,-5.38461c0.63725,-1.97075 1.26807,-3.31301 2.30769,-4.23077c0.64474,-0.56916 1.92307,-0.38462 2.30769,-0.38462c0.38461,0 0.76923,0 0.76923,0.76923c0,0.76923 0.18797,1.9346 0,3.46154c-0.19376,1.57393 -0.68997,3.87978 -1.53846,5.76923c-0.70464,1.5691 -1.29528,3.29382 -2.69231,4.61538c-1.00741,0.953 -2.30769,1.53846 -3.07692,1.92308c-0.76923,0.38462 -1.2665,0.65659 -1.53847,0.38462c-0.27197,-0.27197 -0.17646,-0.65132 -0.38461,-1.15385c-0.29437,-0.71068 -0.38461,-1.92308 -0.76923,-3.07692l-0.38461,-0.76923"/>
 </g>

</svg>